Coordinates
version=1
nRows=14
nColumns=24
inDegrees=yes

Units are S.I. units (second, meters, Newtons, ...)
Angles are in degrees.

endheader
time	pelvis_tilt	pelvis_list	pelvis_rotation	pelvis_tx	pelvis_ty	pelvis_tz	hip_flexion_r	hip_adduction_r	hip_rotation_r	knee_angle_r	ankle_angle_r	subtalar_angle_r	mtp_angle_r	hip_flexion_l	hip_adduction_l	hip_rotation_l	knee_angle_l	ankle_angle_l	subtalar_angle_l	mtp_angle_l	lumbar_extension	lumbar_bending	lumbar_rotation
      1.38000000	     91.53934140	     15.55010647	    -93.48615175	      0.34973714	      0.29079766	      1.01371530	      4.53941928	     -6.68001102	     -2.41041845	     -7.05949630	    -45.51030969	     -1.74545602	    -25.17324631	    -12.64010942	    -17.95347251	    -11.64542184	    -61.45072301	    -23.17369985	     -0.14557499	     73.45799169	      0.00000000	      0.00000000	      0.00000000
      1.39000000	     91.54329511	     15.54859184	    -93.48607124	      0.34973395	      0.29080072	      1.01371306	      4.53506627	     -6.67975255	     -2.40196048	     -7.06097179	    -45.51926979	     -1.74545602	    -25.17324631	    -12.64150021	    -17.95156054	    -11.64823366	    -61.45124657	    -23.17164954	     -0.14557499	     73.45799169	      0.00000000	      0.00000000	      0.00000000
      1.40000000	     91.54735579	     15.54862872	    -93.48696378	      0.34973334	      0.29080520	      1.01371362	      4.53287145	     -6.67962521	     -2.39207413	     -7.06284519	    -45.52793839	     -1.74545602	    -25.17324631	    -12.64255978	    -17.94944636	    -11.65175362	    -61.45155561	    -23.17037716	     -0.14557499	     73.45799169	      0.00000000	      0.00000000	      0.00000000
      1.41000000	     91.55114100	     15.55044566	    -93.48874849	      0.34973551	      0.29080946	      1.01371547	      4.53287153	     -6.67921084	     -2.38177322	     -7.06472500	    -45.53563621	     -1.74545602	    -25.17324631	    -12.64292722	    -17.94771846	    -11.65580491	    -61.45195621	    -23.17142409	     -0.14557499	     73.45799169	      0.00000000	      0.00000000	      0.00000000
      1.42000000	     91.55428720	     15.55389122	    -93.49108746	      0.34973898	      0.29081143	      1.01371667	      4.53474670	     -6.67809437	     -2.37222944	     -7.06641619	    -45.54189617	     -1.74545602	    -25.17324631	    -12.64215656	    -17.94703041	    -11.66026014	    -61.45274345	    -23.17583865	     -0.14557499	     73.45799169	      0.00000000	      0.00000000	      0.00000000
      1.43000000	     91.55652872	     15.55828009	    -93.49353370	      0.34974120	      0.29081245	      1.01371771	      4.53795702	     -6.67605216	     -2.36456965	     -7.06790914	    -45.54645129	     -1.74545602	    -25.17324631	    -12.63978864	    -17.94798468	    -11.66493431	    -61.45395213	    -23.18373825	     -0.14557499	     73.45799169	      0.00000000	      0.00000000	      0.00000000
      1.44000000	     91.55784716	     15.56253081	    -93.49571236	      0.34974158	      0.29081697	      1.01371939	      4.54187383	     -6.67312809	     -2.35961456	     -7.06928210	    -45.54918844	     -1.74545602	    -25.17324631	    -12.63558875	    -17.95096866	    -11.66940752	    -61.45530259	    -23.19414294	     -0.14557499	     73.45799169	      0.00000000	      0.00000000	      0.00000000
      1.45000000	     91.55847802	     15.56573516	    -93.49730643	      0.34974318	      0.29082643	      1.01372024	      4.54586002	     -6.66958800	     -2.35764870	     -7.07058003	    -45.55010977	     -1.74545602	    -25.17324631	    -12.62997591	    -17.95577976	    -11.67300931	    -61.45646352	    -23.20515525	     -0.14557499	     73.45799169	      0.00000000	      0.00000000	      0.00000000
      1.46000000	     91.55875219	     15.56775606	    -93.49797430	      0.34974748	      0.29083589	      1.01371797	      4.54934603	     -6.66580929	     -2.35832346	     -7.07172452	    -45.54932825	     -1.74545602	    -25.17324631	    -12.62430888	    -17.96132856	    -11.67501732	    -61.45740100	    -23.21444983	     -0.14557499	     73.45799169	      0.00000000	      0.00000000	      0.00000000
      1.47000000	     91.55898468	     15.56909500	    -93.49750826	      0.34975026	      0.29084063	      1.01371225	      4.55191002	     -6.66218938	     -2.36075598	     -7.07250339	    -45.54709489	     -1.74545602	    -25.17324631	    -12.62042172	    -17.96595869	    -11.67492508	    -61.45835476	    -23.21992184	     -0.14557499	     73.45799169	      0.00000000	      0.00000000	      0.00000000
      1.48000000	     91.55945121	     15.57011232	    -93.49615867	      0.34974791	      0.29084285	      1.01370648	      4.55327255	     -6.65915735	     -2.36379946	     -7.07267473	    -45.54382923	     -1.74545602	    -25.17324631	    -12.61950489	    -17.96832337	    -11.67262717	    -61.45943703	    -23.22027144	     -0.14557499	     73.45799169	      0.00000000	      0.00000000	      0.00000000
      1.49000000	     91.56036427	     15.57062183	    -93.49461233	      0.34974247	      0.29084677	      1.01370486	      4.55325634	     -6.65716716	     -2.36638764	     -7.07210856	    -45.54011068	     -1.74545602	    -25.17324631	    -12.62141136	    -17.96805163	    -11.66846128	    -61.46042110	    -23.21532684	     -0.14557499	     73.45799169	      0.00000000	      0.00000000	      0.00000000
      1.50000000	     91.56184476	     15.57025996	    -93.49352239	      0.34973831	      0.29085268	      1.01370726	      4.55184231	     -6.65649913	     -2.36782714	     -7.07085703	    -45.53660790	     -1.74545602	    -25.17324631	    -12.62499729	    -17.96573233	    -11.66309393	    -61.46097294	    -23.20601571	     -0.14557499	     73.45799169	      0.00000000	      0.00000000	      0.00000000
      1.51000000	     91.56382566	     15.56910212	    -93.49302628	      0.34973693	      0.29085823	      1.01370887	      4.54927534	     -6.65703504	     -2.36791900	     -7.06915065	    -45.53395775	     -1.74545602	    -25.17324631	    -12.62902252	    -17.96240265	    -11.65730935	    -61.46102514	    -23.19403980	     -0.14557499	     73.45799169	      0.00000000	      0.00000000	      0.00000000
